<?xml version="1.0" standalone="no"?><!DOCTYPE svg PUBLIC "-//W3C//DTD SVG 1.1//EN" "http://www.w3.org/Graphics/SVG/1.1/DTD/svg11.dtd"><svg t="1635935562355" class="icon" viewBox="0 0 1024 1024" version="1.1" xmlns="http://www.w3.org/2000/svg" p-id="1922" xmlns:xlink="http://www.w3.org/1999/xlink" width="200" height="200"><defs><style type="text/css"></style></defs><path d="M425.28 926.24c-303.04 0-435.04-363.2-228.64-569.6a16 16 0 0 1 22.72 22.72c-117.76 117.76-120 314.72-4.64 429.92s312.16 113.28 429.92-4.64l80-80a16 16 0 0 1 22.72 22.72c-87.36 87.36-158.72 178.88-322.08 178.88z" fill="#68539B" p-id="1923"></path><path d="M816 368c-39.2 69.6-213.44 370.24-289.6 446.4a224 224 0 0 1-316.8-316.8C278.88 428.48 459.68 320 544 272c0 0 2.72 17.28 6.24 45.92C686.88 258.4 812 209.6 816 208c-1.6 4.32-29.12 74.56-67.52 166.24C789.92 370.08 816 368 816 368z" fill="#FF5C3C" p-id="1924"></path><path d="M704 440.8C673.92 494.24 540.32 724.8 481.92 784a171.84 171.84 0 0 1-242.88 0c-75.2-75.04-59.36-195.84 3.36-246.24C312.32 469.6 496 368 496 368s2.08 13.28 4.8 35.2c104.16-46.4 200.16-83.2 203.2-84.96-1.12 3.36-22.24 57.12-51.68 128 31.68-3.84 51.68-5.44 51.68-5.44z" fill="#FF2E04" p-id="1925"></path><path d="M576 458.72v68.16l-48 51.2V608l-48 48v48l-48 48h-64l-32 32h-64l-32-32v-146.4l48-48v-48L320 480h84L464 416h72z" fill="#FD7504" p-id="1926"></path><path d="M512 474.72v68.16l-48 51.2V624l-48 48v48l-48 48h-64l-16 16h-16l-32-32.48v-145.92l48-48.64v-48.64l13.92-12.32h38.08l15.04-16h48.96l44.96-48h23.04l40 42.72z" fill="#FD8F07" p-id="1927"></path><path d="M240 352a16 16 0 0 1-11.36-27.36l64-64a16 16 0 0 1 22.72 22.72C245.44 353.28 248.96 352 240 352zM784 704a16 16 0 0 1-11.36-27.36l16-16a16 16 0 0 1 22.72 22.72C794.4 700.32 792.32 704 784 704zM336 256a16 16 0 0 1-11.36-27.36l16-16a16 16 0 0 1 22.72 22.72C346.4 252.32 344.32 256 336 256zM400 272a16 16 0 0 1-10.56-28.16l120-104a16 16 0 0 1 21.12 24.32C400.8 276.48 408.48 272 400 272zM736 624a16 16 0 0 1-11.36-27.36l168-168a16 16 0 0 1 22.72 22.72C733.28 633.28 745.44 624 736 624zM560 128a16 16 0 0 1-11.36-27.36l16-16a16 16 0 0 1 22.72 22.72C570.4 124.32 568.32 128 560 128z" fill="#68539B" p-id="1928"></path><path d="M240 704a16 16 0 0 1-11.36-27.36l88-88a16 16 0 0 1 22.72 22.72C244.48 706.08 249.28 704 240 704zM352 688a16 16 0 0 1-11.36-27.36l56-56a16 16 0 0 1 22.72 22.72C359.2 688 360.96 688 352 688zM496 528a16 16 0 0 1-11.36-27.36l64-64a16 16 0 0 1 22.72 22.72C501.44 529.28 504.96 528 496 528zM256 784a16 16 0 0 1-11.36-27.36l40-40a16 16 0 0 1 22.72 22.72C264.16 782.56 264.8 784 256 784z" fill="#FDA736" p-id="1929"></path><path d="M368 896C156.96 896 48 637.44 198.56 485.92c4.64-4.48 18.4-17.44 36.96-32A16 16 0 0 1 256 478.24c-10.24 8.48-26.08 22.08-34.72 30.56a208 208 0 0 0 244.16 331.04 16 16 0 0 1 14.56 28.16A240 240 0 0 1 368 896zM524 832a16 16 0 0 1-8.8-29.6c73.44-76.16 219.2-324.96 272-416-36.16 3.36-44.16 7.04-51.36-2.72s-5.6-3.36 51.84-147.36c-29.44 11.68-75.2 30.08-128 52.32a16 16 0 0 1-12.48-29.44c88.16-36.8 156-64 163.36-66.24a16 16 0 0 1 20.96 20.48c-1.28 3.52-24.32 62.4-57.44 142.08l40.64-3.52a16 16 0 0 1 15.2 23.84C807.2 416 568.16 832 524 832zM296.32 443.36a16 16 0 0 1-9.28-28.96c106.24-76.16 247.68-155.52 249.12-156.32a16 16 0 0 1 14.88 0c10.24 4.96 9.44 16 12.32 37.12l24.48-10.4a16 16 0 0 1 12.48 29.44l-43.52 18.24a16 16 0 0 1-22.4-12.48c-1.12-8.48-2.08-16-2.88-22.24-211.52 121.92-219.68 145.6-235.2 145.6z" fill="#35214C" p-id="1930"></path><path d="M208 240a16 16 0 0 1-32 0 16 16 0 0 1 32 0z" fill="#FD7504" p-id="1931"></path><path d="M896 336a16 16 0 0 1-32 0 16 16 0 0 1 32 0z" fill="#FF2E04" p-id="1932"></path><path d="M400 112a16 16 0 0 1-32 0 16 16 0 0 1 32 0z" fill="#FF5C3C" p-id="1933"></path><path d="M816 816a16 16 0 0 1-32 0 16 16 0 0 1 32 0z" fill="#FD7504" p-id="1934"></path><path d="M656 176a16 16 0 0 1-32 0 16 16 0 0 1 32 0z" fill="#FF2E04" p-id="1935"></path><path d="M928 592a16 16 0 0 1-32 0 16 16 0 0 1 32 0z" fill="#FF5C3C" p-id="1936"></path><path d="M336 800c-69.44 0-69.12 1.6-75.36-4.8C225.76 759.84 224 760 224 752v-80a16 16 0 0 1 32 0v72.96L278.72 768h50.72c28.8-28.8 29.76-32 38.56-32h57.44L464 697.44V656a16 16 0 0 1 32 0v48c0 8.8 0 6.88-52.64 59.36-6.56 6.4-7.84 4.64-68.8 4.64-28.8 28.8-29.76 32-38.56 32zM224 624c0-32-6.72-18.24 48-73.6 0-44.8-1.6-48 5.44-54.08 34.4-30.4 34.56-32 42.56-32h77.12l55.2-58.88c6.4-6.88 5.28-5.12 83.68-5.12 9.6 0 9.44 2.72 51.68 48 5.76 6.08 4.32 4.8 4.32 79.04 0 8.48 0 6.88-48 57.6V608a16 16 0 0 1-32 0c0-45.28-8.32-27.36 48-87.52v-55.52L529.12 432h-58.24L416 490.88c-6.72 7.2-7.2 5.12-89.6 5.12L304 515.52v41.44c0 8.64 0 7.2-48 55.2V624a16 16 0 0 1-32 0z" fill="#35214C" p-id="1937"></path></svg>